<svg width="586" height="115" viewBox="0 0 586 115" fill="none" xmlns="http://www.w3.org/2000/svg">
<path d="M316.69 48.2266C316.69 47.8779 316.635 47.5703 316.526 47.3037C316.423 47.0303 316.239 46.7842 315.972 46.5654C315.712 46.3467 315.35 46.1382 314.885 45.9399C314.427 45.7417 313.846 45.54 313.142 45.335C312.404 45.1162 311.737 44.8735 311.143 44.6069C310.548 44.3335 310.039 44.0225 309.615 43.6738C309.191 43.3252 308.866 42.9253 308.641 42.4741C308.415 42.0229 308.302 41.5068 308.302 40.9258C308.302 40.3447 308.422 39.8081 308.661 39.3159C308.9 38.8237 309.242 38.3965 309.687 38.0342C310.138 37.665 310.674 37.3779 311.296 37.1729C311.918 36.9678 312.612 36.8652 313.378 36.8652C314.499 36.8652 315.449 37.0806 316.229 37.5112C317.015 37.9351 317.613 38.4922 318.023 39.1826C318.433 39.8662 318.638 40.5977 318.638 41.377H316.669C316.669 40.8164 316.55 40.3208 316.311 39.8901C316.071 39.4526 315.709 39.1108 315.224 38.8647C314.738 38.6118 314.123 38.4854 313.378 38.4854C312.674 38.4854 312.093 38.5913 311.635 38.8032C311.177 39.0151 310.835 39.3022 310.609 39.6646C310.391 40.0269 310.281 40.4404 310.281 40.9053C310.281 41.2197 310.346 41.5068 310.476 41.7666C310.613 42.0195 310.821 42.2554 311.102 42.4741C311.389 42.6929 311.751 42.8945 312.188 43.0791C312.633 43.2637 313.163 43.4414 313.778 43.6123C314.625 43.8516 315.357 44.1182 315.972 44.4121C316.587 44.7061 317.093 45.0376 317.49 45.4067C317.893 45.769 318.19 46.1826 318.382 46.6475C318.58 47.1055 318.679 47.625 318.679 48.2061C318.679 48.8145 318.556 49.3647 318.31 49.8569C318.064 50.3491 317.712 50.7695 317.254 51.1182C316.796 51.4668 316.246 51.7368 315.603 51.9282C314.967 52.1128 314.256 52.2051 313.47 52.2051C312.78 52.2051 312.1 52.1094 311.43 51.918C310.767 51.7266 310.162 51.4395 309.615 51.0566C309.075 50.6738 308.641 50.2021 308.312 49.6416C307.991 49.0742 307.831 48.418 307.831 47.6729H309.799C309.799 48.1855 309.898 48.6265 310.097 48.9956C310.295 49.3579 310.565 49.6587 310.907 49.8979C311.255 50.1372 311.648 50.3149 312.086 50.4312C312.53 50.5405 312.992 50.5952 313.47 50.5952C314.161 50.5952 314.745 50.4995 315.224 50.3081C315.702 50.1167 316.064 49.8433 316.311 49.4878C316.563 49.1323 316.69 48.7119 316.69 48.2266ZM325.56 40.9053V42.3613H319.561V40.9053H325.56ZM321.591 38.2085H323.488V49.252C323.488 49.6279 323.546 49.9116 323.663 50.103C323.779 50.2944 323.929 50.4209 324.114 50.4824C324.298 50.5439 324.497 50.5747 324.708 50.5747C324.866 50.5747 325.03 50.561 325.201 50.5337C325.378 50.4995 325.512 50.4722 325.601 50.4517L325.611 52C325.46 52.0479 325.262 52.0923 325.016 52.1333C324.777 52.1812 324.486 52.2051 324.145 52.2051C323.68 52.2051 323.252 52.1128 322.863 51.9282C322.473 51.7437 322.162 51.436 321.93 51.0054C321.704 50.5679 321.591 49.98 321.591 49.2417V38.2085ZM334.327 50.103V44.3916C334.327 43.9541 334.238 43.5747 334.06 43.2534C333.889 42.9253 333.629 42.6724 333.281 42.4946C332.932 42.3169 332.501 42.228 331.989 42.228C331.51 42.228 331.09 42.3101 330.728 42.4741C330.372 42.6382 330.092 42.8535 329.887 43.1201C329.688 43.3867 329.589 43.6738 329.589 43.9814H327.692C327.692 43.585 327.795 43.1919 328 42.8022C328.205 42.4126 328.499 42.0605 328.882 41.7461C329.271 41.4248 329.736 41.1719 330.276 40.9873C330.823 40.7959 331.432 40.7002 332.102 40.7002C332.908 40.7002 333.619 40.8369 334.234 41.1104C334.856 41.3838 335.342 41.7974 335.69 42.3511C336.046 42.8979 336.224 43.585 336.224 44.4121V49.5801C336.224 49.9492 336.254 50.3423 336.316 50.7593C336.384 51.1763 336.483 51.5352 336.613 51.8359V52H334.634C334.539 51.7812 334.463 51.4907 334.409 51.1284C334.354 50.7593 334.327 50.4175 334.327 50.103ZM334.655 45.2734L334.675 46.6064H332.758C332.218 46.6064 331.736 46.6509 331.312 46.7397C330.888 46.8218 330.533 46.9482 330.246 47.1191C329.958 47.29 329.74 47.5054 329.589 47.7651C329.439 48.0181 329.364 48.3154 329.364 48.6572C329.364 49.0059 329.442 49.3237 329.6 49.6108C329.757 49.8979 329.993 50.127 330.307 50.2979C330.628 50.4619 331.021 50.5439 331.486 50.5439C332.067 50.5439 332.58 50.4209 333.024 50.1748C333.469 49.9287 333.821 49.6279 334.081 49.2725C334.347 48.917 334.491 48.5718 334.511 48.2368L335.321 49.1494C335.273 49.4365 335.144 49.7544 334.932 50.103C334.72 50.4517 334.436 50.7866 334.081 51.1079C333.732 51.4224 333.315 51.6855 332.83 51.8975C332.351 52.1025 331.811 52.2051 331.209 52.2051C330.458 52.2051 329.798 52.0581 329.23 51.7642C328.67 51.4702 328.232 51.0771 327.918 50.585C327.61 50.0859 327.457 49.5288 327.457 48.9136C327.457 48.3188 327.573 47.7959 327.805 47.3447C328.038 46.8867 328.373 46.5073 328.81 46.2065C329.248 45.8989 329.774 45.6665 330.389 45.5093C331.004 45.3521 331.691 45.2734 332.45 45.2734H334.655ZM343.853 40.9053V42.3613H337.854V40.9053H343.853ZM339.884 38.2085H341.781V49.252C341.781 49.6279 341.839 49.9116 341.956 50.103C342.072 50.2944 342.222 50.4209 342.407 50.4824C342.591 50.5439 342.79 50.5747 343.001 50.5747C343.159 50.5747 343.323 50.561 343.494 50.5337C343.671 50.4995 343.805 50.4722 343.894 50.4517L343.904 52C343.753 52.0479 343.555 52.0923 343.309 52.1333C343.07 52.1812 342.779 52.2051 342.438 52.2051C341.973 52.2051 341.545 52.1128 341.156 51.9282C340.766 51.7437 340.455 51.436 340.223 51.0054C339.997 50.5679 339.884 49.98 339.884 49.2417V38.2085ZM350.682 52.2051C349.909 52.2051 349.208 52.0752 348.58 51.8154C347.958 51.5488 347.421 51.1763 346.97 50.6978C346.525 50.2192 346.184 49.6519 345.944 48.9956C345.705 48.3394 345.585 47.6216 345.585 46.8423V46.4116C345.585 45.5093 345.719 44.7061 345.985 44.002C346.252 43.291 346.614 42.6895 347.072 42.1973C347.53 41.7051 348.05 41.3325 348.631 41.0796C349.212 40.8267 349.813 40.7002 350.436 40.7002C351.229 40.7002 351.912 40.8369 352.486 41.1104C353.067 41.3838 353.542 41.7666 353.912 42.2588C354.281 42.7441 354.554 43.3184 354.732 43.9814C354.91 44.6377 354.999 45.3555 354.999 46.1348V46.9858H346.713V45.4375H353.102V45.2939C353.074 44.8018 352.972 44.3232 352.794 43.8584C352.623 43.3936 352.35 43.0107 351.974 42.71C351.598 42.4092 351.085 42.2588 350.436 42.2588C350.005 42.2588 349.608 42.3511 349.246 42.5356C348.884 42.7134 348.573 42.98 348.313 43.3354C348.053 43.6909 347.852 44.125 347.708 44.6377C347.564 45.1504 347.493 45.7417 347.493 46.4116V46.8423C347.493 47.3687 347.564 47.8643 347.708 48.3291C347.858 48.7871 348.074 49.1904 348.354 49.5391C348.641 49.8877 348.986 50.1611 349.39 50.3594C349.8 50.5576 350.265 50.6567 350.784 50.6567C351.454 50.6567 352.021 50.52 352.486 50.2466C352.951 49.9731 353.358 49.6074 353.707 49.1494L354.855 50.062C354.616 50.4243 354.312 50.7695 353.942 51.0977C353.573 51.4258 353.119 51.6924 352.579 51.8975C352.045 52.1025 351.413 52.2051 350.682 52.2051ZM371.251 37.0703H373.22V47.1704C373.22 48.2915 372.97 49.2246 372.471 49.9697C371.972 50.7148 371.309 51.2754 370.482 51.6514C369.662 52.0205 368.77 52.2051 367.806 52.2051C366.794 52.2051 365.878 52.0205 365.058 51.6514C364.244 51.2754 363.598 50.7148 363.12 49.9697C362.648 49.2246 362.412 48.2915 362.412 47.1704V37.0703H364.371V47.1704C364.371 47.9497 364.514 48.5923 364.801 49.0981C365.088 49.604 365.488 49.98 366.001 50.2261C366.521 50.4722 367.122 50.5952 367.806 50.5952C368.496 50.5952 369.098 50.4722 369.61 50.2261C370.13 49.98 370.533 49.604 370.82 49.0981C371.107 48.5923 371.251 47.9497 371.251 47.1704V37.0703ZM377.937 43.2739V52H376.04V40.9053H377.834L377.937 43.2739ZM377.485 46.0322L376.696 46.0015C376.703 45.2427 376.815 44.542 377.034 43.8994C377.253 43.25 377.561 42.686 377.957 42.2075C378.354 41.729 378.825 41.3599 379.372 41.1001C379.926 40.8335 380.538 40.7002 381.208 40.7002C381.754 40.7002 382.247 40.7754 382.684 40.9258C383.122 41.0693 383.494 41.3018 383.802 41.623C384.116 41.9443 384.355 42.3613 384.52 42.874C384.684 43.3799 384.766 43.9985 384.766 44.73V52H382.858V44.7095C382.858 44.1284 382.773 43.6636 382.602 43.3149C382.431 42.9595 382.182 42.7031 381.854 42.5459C381.525 42.3818 381.122 42.2998 380.644 42.2998C380.172 42.2998 379.741 42.3989 379.352 42.5972C378.969 42.7954 378.637 43.0688 378.357 43.4175C378.083 43.7661 377.868 44.166 377.711 44.6172C377.561 45.0615 377.485 45.5332 377.485 46.0322ZM389.708 40.9053V52H387.801V40.9053H389.708ZM387.657 37.9624C387.657 37.6548 387.75 37.395 387.934 37.1831C388.125 36.9712 388.406 36.8652 388.775 36.8652C389.137 36.8652 389.414 36.9712 389.605 37.1831C389.804 37.395 389.903 37.6548 389.903 37.9624C389.903 38.2563 389.804 38.5093 389.605 38.7212C389.414 38.9263 389.137 39.0288 388.775 39.0288C388.406 39.0288 388.125 38.9263 387.934 38.7212C387.75 38.5093 387.657 38.2563 387.657 37.9624ZM396.127 50.2876L399.162 40.9053H401.1L397.111 52H395.84L396.127 50.2876ZM393.594 40.9053L396.722 50.3389L396.937 52H395.666L391.646 40.9053H393.594ZM407.386 52.2051C406.613 52.2051 405.913 52.0752 405.284 51.8154C404.662 51.5488 404.125 51.1763 403.674 50.6978C403.229 50.2192 402.888 49.6519 402.648 48.9956C402.409 48.3394 402.29 47.6216 402.29 46.8423V46.4116C402.29 45.5093 402.423 44.7061 402.689 44.002C402.956 43.291 403.318 42.6895 403.776 42.1973C404.234 41.7051 404.754 41.3325 405.335 41.0796C405.916 40.8267 406.518 40.7002 407.14 40.7002C407.933 40.7002 408.616 40.8369 409.19 41.1104C409.771 41.3838 410.247 41.7666 410.616 42.2588C410.985 42.7441 411.258 43.3184 411.436 43.9814C411.614 44.6377 411.703 45.3555 411.703 46.1348V46.9858H403.417V45.4375H409.806V45.2939C409.778 44.8018 409.676 44.3232 409.498 43.8584C409.327 43.3936 409.054 43.0107 408.678 42.71C408.302 42.4092 407.789 42.2588 407.14 42.2588C406.709 42.2588 406.312 42.3511 405.95 42.5356C405.588 42.7134 405.277 42.98 405.017 43.3354C404.757 43.6909 404.556 44.125 404.412 44.6377C404.269 45.1504 404.197 45.7417 404.197 46.4116V46.8423C404.197 47.3687 404.269 47.8643 404.412 48.3291C404.562 48.7871 404.778 49.1904 405.058 49.5391C405.345 49.8877 405.69 50.1611 406.094 50.3594C406.504 50.5576 406.969 50.6567 407.488 50.6567C408.158 50.6567 408.726 50.52 409.19 50.2466C409.655 49.9731 410.062 49.6074 410.411 49.1494L411.559 50.062C411.32 50.4243 411.016 50.7695 410.646 51.0977C410.277 51.4258 409.823 51.6924 409.283 51.8975C408.75 52.1025 408.117 52.2051 407.386 52.2051ZM415.814 42.6484V52H413.917V40.9053H415.763L415.814 42.6484ZM419.28 40.8438L419.27 42.6074C419.113 42.5732 418.962 42.5527 418.819 42.5459C418.682 42.5322 418.525 42.5254 418.347 42.5254C417.91 42.5254 417.523 42.5938 417.188 42.7305C416.854 42.8672 416.57 43.0586 416.337 43.3047C416.105 43.5508 415.92 43.8447 415.784 44.1865C415.654 44.5215 415.568 44.8906 415.527 45.2939L414.994 45.6016C414.994 44.9316 415.059 44.3027 415.189 43.7148C415.326 43.127 415.534 42.6074 415.814 42.1562C416.095 41.6982 416.45 41.3428 416.881 41.0898C417.318 40.8301 417.838 40.7002 418.439 40.7002C418.576 40.7002 418.733 40.7173 418.911 40.7515C419.089 40.7788 419.212 40.8096 419.28 40.8438ZM427.494 49.0571C427.494 48.7837 427.432 48.5308 427.309 48.2983C427.193 48.0591 426.95 47.8438 426.581 47.6523C426.219 47.4541 425.672 47.2832 424.94 47.1396C424.325 47.0098 423.768 46.856 423.269 46.6782C422.777 46.5005 422.356 46.2852 422.008 46.0322C421.666 45.7793 421.403 45.4819 421.218 45.1401C421.034 44.7983 420.941 44.3984 420.941 43.9404C420.941 43.5029 421.037 43.0894 421.229 42.6997C421.427 42.3101 421.704 41.9648 422.059 41.6641C422.421 41.3633 422.855 41.1274 423.361 40.9565C423.867 40.7856 424.431 40.7002 425.053 40.7002C425.942 40.7002 426.701 40.8574 427.33 41.1719C427.958 41.4863 428.44 41.9067 428.775 42.4331C429.11 42.9526 429.278 43.5303 429.278 44.166H427.381C427.381 43.8584 427.289 43.561 427.104 43.2739C426.926 42.98 426.663 42.7373 426.314 42.5459C425.973 42.3545 425.552 42.2588 425.053 42.2588C424.527 42.2588 424.1 42.3408 423.771 42.5049C423.45 42.6621 423.214 42.8638 423.064 43.1099C422.92 43.356 422.849 43.6157 422.849 43.8892C422.849 44.0942 422.883 44.2788 422.951 44.4429C423.026 44.6001 423.156 44.7471 423.341 44.8838C423.525 45.0137 423.785 45.1367 424.12 45.2529C424.455 45.3691 424.882 45.4854 425.402 45.6016C426.311 45.8066 427.06 46.0527 427.647 46.3398C428.235 46.627 428.673 46.979 428.96 47.396C429.247 47.813 429.391 48.3188 429.391 48.9136C429.391 49.3989 429.288 49.8433 429.083 50.2466C428.885 50.6499 428.594 50.9985 428.211 51.2925C427.835 51.5796 427.384 51.8052 426.858 51.9692C426.338 52.1265 425.754 52.2051 425.104 52.2051C424.127 52.2051 423.3 52.0308 422.623 51.6821C421.946 51.3335 421.434 50.8823 421.085 50.3286C420.736 49.7749 420.562 49.1904 420.562 48.5752H422.469C422.497 49.0947 422.647 49.5083 422.92 49.8159C423.194 50.1167 423.529 50.332 423.925 50.4619C424.322 50.585 424.715 50.6465 425.104 50.6465C425.624 50.6465 426.058 50.5781 426.407 50.4414C426.762 50.3047 427.032 50.1167 427.217 49.8774C427.401 49.6382 427.494 49.3647 427.494 49.0571ZM433.943 40.9053V52H432.036V40.9053H433.943ZM431.893 37.9624C431.893 37.6548 431.985 37.395 432.169 37.1831C432.361 36.9712 432.641 36.8652 433.01 36.8652C433.373 36.8652 433.649 36.9712 433.841 37.1831C434.039 37.395 434.138 37.6548 434.138 37.9624C434.138 38.2563 434.039 38.5093 433.841 38.7212C433.649 38.9263 433.373 39.0288 433.01 39.0288C432.641 39.0288 432.361 38.9263 432.169 38.7212C431.985 38.5093 431.893 38.2563 431.893 37.9624ZM441.634 40.9053V42.3613H435.635V40.9053H441.634ZM437.666 38.2085H439.562V49.252C439.562 49.6279 439.621 49.9116 439.737 50.103C439.853 50.2944 440.003 50.4209 440.188 50.4824C440.373 50.5439 440.571 50.5747 440.783 50.5747C440.94 50.5747 441.104 50.561 441.275 50.5337C441.453 50.4995 441.586 50.4722 441.675 50.4517L441.685 52C441.535 52.0479 441.336 52.0923 441.09 52.1333C440.851 52.1812 440.561 52.2051 440.219 52.2051C439.754 52.2051 439.327 52.1128 438.937 51.9282C438.547 51.7437 438.236 51.436 438.004 51.0054C437.778 50.5679 437.666 49.98 437.666 49.2417V38.2085ZM446.976 50.8516L450.062 40.9053H452.093L447.643 53.7124C447.54 53.9858 447.403 54.2798 447.232 54.5942C447.068 54.9155 446.856 55.2197 446.597 55.5068C446.337 55.7939 446.022 56.0264 445.653 56.2041C445.291 56.3887 444.857 56.481 444.351 56.481C444.201 56.481 444.009 56.4604 443.777 56.4194C443.544 56.3784 443.38 56.3442 443.285 56.3169L443.274 54.7788C443.329 54.7856 443.415 54.7925 443.531 54.7993C443.654 54.813 443.739 54.8198 443.787 54.8198C444.218 54.8198 444.583 54.7617 444.884 54.6455C445.185 54.5361 445.438 54.3481 445.643 54.0815C445.855 53.8218 446.036 53.4629 446.187 53.0049L446.976 50.8516ZM444.71 40.9053L447.591 49.5186L448.083 51.5181L446.72 52.2153L442.639 40.9053H444.71ZM307.943 71.5757V71.3398C307.943 70.54 308.06 69.7983 308.292 69.1147C308.524 68.4243 308.859 67.8262 309.297 67.3203C309.734 66.8076 310.264 66.4111 310.886 66.1309C311.508 65.8438 312.206 65.7002 312.978 65.7002C313.757 65.7002 314.458 65.8438 315.08 66.1309C315.709 66.4111 316.242 66.8076 316.68 67.3203C317.124 67.8262 317.462 68.4243 317.695 69.1147C317.927 69.7983 318.043 70.54 318.043 71.3398V71.5757C318.043 72.3755 317.927 73.1172 317.695 73.8008C317.462 74.4844 317.124 75.0825 316.68 75.5952C316.242 76.1011 315.712 76.4976 315.09 76.7847C314.475 77.0649 313.778 77.2051 312.999 77.2051C312.219 77.2051 311.519 77.0649 310.896 76.7847C310.274 76.4976 309.741 76.1011 309.297 75.5952C308.859 75.0825 308.524 74.4844 308.292 73.8008C308.06 73.1172 307.943 72.3755 307.943 71.5757ZM309.84 71.3398V71.5757C309.84 72.1294 309.905 72.6523 310.035 73.1445C310.165 73.6299 310.36 74.0605 310.62 74.4365C310.886 74.8125 311.218 75.1099 311.614 75.3286C312.011 75.5405 312.472 75.6465 312.999 75.6465C313.518 75.6465 313.973 75.5405 314.362 75.3286C314.759 75.1099 315.087 74.8125 315.347 74.4365C315.606 74.0605 315.801 73.6299 315.931 73.1445C316.068 72.6523 316.136 72.1294 316.136 71.5757V71.3398C316.136 70.793 316.068 70.2769 315.931 69.7915C315.801 69.2993 315.603 68.8652 315.336 68.4893C315.077 68.1064 314.749 67.8057 314.352 67.5869C313.962 67.3682 313.504 67.2588 312.978 67.2588C312.458 67.2588 312 67.3682 311.604 67.5869C311.214 67.8057 310.886 68.1064 310.62 68.4893C310.36 68.8652 310.165 69.2993 310.035 69.7915C309.905 70.2769 309.84 70.793 309.84 71.3398ZM323.252 77H321.355V64.7363C321.355 63.9365 321.499 63.2632 321.786 62.7163C322.08 62.1626 322.5 61.7456 323.047 61.4653C323.594 61.1782 324.244 61.0347 324.996 61.0347C325.214 61.0347 325.433 61.0483 325.652 61.0757C325.877 61.103 326.096 61.144 326.308 61.1987L326.206 62.7471C326.062 62.7129 325.898 62.689 325.713 62.6753C325.536 62.6616 325.358 62.6548 325.18 62.6548C324.777 62.6548 324.428 62.7368 324.134 62.9009C323.847 63.0581 323.628 63.2905 323.478 63.5981C323.328 63.9058 323.252 64.2852 323.252 64.7363V77ZM325.611 65.9053V67.3613H319.602V65.9053H325.611ZM338.746 63.3931L333.804 77H331.784L337.475 62.0703H338.777L338.746 63.3931ZM342.889 77L337.936 63.3931L337.905 62.0703H339.208L344.919 77H342.889ZM342.632 71.4731V73.0933H334.245V71.4731H342.632ZM351.235 77.2051C350.463 77.2051 349.762 77.0752 349.133 76.8154C348.511 76.5488 347.975 76.1763 347.523 75.6978C347.079 75.2192 346.737 74.6519 346.498 73.9956C346.259 73.3394 346.139 72.6216 346.139 71.8423V71.4116C346.139 70.5093 346.272 69.7061 346.539 69.002C346.806 68.291 347.168 67.6895 347.626 67.1973C348.084 66.7051 348.604 66.3325 349.185 66.0796C349.766 65.8267 350.367 65.7002 350.989 65.7002C351.782 65.7002 352.466 65.8369 353.04 66.1104C353.621 66.3838 354.096 66.7666 354.465 67.2588C354.834 67.7441 355.108 68.3184 355.286 68.9814C355.463 69.6377 355.552 70.3555 355.552 71.1348V71.9858H347.267V70.4375H353.655V70.2939C353.628 69.8018 353.525 69.3232 353.348 68.8584C353.177 68.3936 352.903 68.0107 352.527 67.71C352.151 67.4092 351.639 67.2588 350.989 67.2588C350.559 67.2588 350.162 67.3511 349.8 67.5356C349.438 67.7134 349.126 67.98 348.867 68.3354C348.607 68.6909 348.405 69.125 348.262 69.6377C348.118 70.1504 348.046 70.7417 348.046 71.4116V71.8423C348.046 72.3687 348.118 72.8643 348.262 73.3291C348.412 73.7871 348.627 74.1904 348.908 74.5391C349.195 74.8877 349.54 75.1611 349.943 75.3594C350.354 75.5576 350.818 75.6567 351.338 75.6567C352.008 75.6567 352.575 75.52 353.04 75.2466C353.505 74.9731 353.912 74.6074 354.26 74.1494L355.409 75.062C355.169 75.4243 354.865 75.7695 354.496 76.0977C354.127 76.4258 353.672 76.6924 353.132 76.8975C352.599 77.1025 351.967 77.2051 351.235 77.2051ZM359.664 67.6484V77H357.767V65.9053H359.613L359.664 67.6484ZM363.13 65.8438L363.12 67.6074C362.962 67.5732 362.812 67.5527 362.668 67.5459C362.532 67.5322 362.375 67.5254 362.197 67.5254C361.759 67.5254 361.373 67.5938 361.038 67.7305C360.703 67.8672 360.419 68.0586 360.187 68.3047C359.955 68.5508 359.77 68.8447 359.633 69.1865C359.503 69.5215 359.418 69.8906 359.377 70.2939L358.844 70.6016C358.844 69.9316 358.909 69.3027 359.039 68.7148C359.175 68.127 359.384 67.6074 359.664 67.1562C359.944 66.6982 360.3 66.3428 360.73 66.0898C361.168 65.8301 361.688 65.7002 362.289 65.7002C362.426 65.7002 362.583 65.7173 362.761 65.7515C362.938 65.7788 363.062 65.8096 363.13 65.8438ZM364.176 71.5757V71.3398C364.176 70.54 364.292 69.7983 364.524 69.1147C364.757 68.4243 365.092 67.8262 365.529 67.3203C365.967 66.8076 366.497 66.4111 367.119 66.1309C367.741 65.8438 368.438 65.7002 369.21 65.7002C369.99 65.7002 370.69 65.8438 371.312 66.1309C371.941 66.4111 372.475 66.8076 372.912 67.3203C373.356 67.8262 373.695 68.4243 373.927 69.1147C374.16 69.7983 374.276 70.54 374.276 71.3398V71.5757C374.276 72.3755 374.16 73.1172 373.927 73.8008C373.695 74.4844 373.356 75.0825 372.912 75.5952C372.475 76.1011 371.945 76.4976 371.323 76.7847C370.708 77.0649 370.01 77.2051 369.231 77.2051C368.452 77.2051 367.751 77.0649 367.129 76.7847C366.507 76.4976 365.974 76.1011 365.529 75.5952C365.092 75.0825 364.757 74.4844 364.524 73.8008C364.292 73.1172 364.176 72.3755 364.176 71.5757ZM366.073 71.3398V71.5757C366.073 72.1294 366.138 72.6523 366.268 73.1445C366.397 73.6299 366.592 74.0605 366.852 74.4365C367.119 74.8125 367.45 75.1099 367.847 75.3286C368.243 75.5405 368.705 75.6465 369.231 75.6465C369.75 75.6465 370.205 75.5405 370.595 75.3286C370.991 75.1099 371.319 74.8125 371.579 74.4365C371.839 74.0605 372.034 73.6299 372.164 73.1445C372.3 72.6523 372.369 72.1294 372.369 71.5757V71.3398C372.369 70.793 372.3 70.2769 372.164 69.7915C372.034 69.2993 371.835 68.8652 371.569 68.4893C371.309 68.1064 370.981 67.8057 370.584 67.5869C370.195 67.3682 369.737 67.2588 369.21 67.2588C368.691 67.2588 368.233 67.3682 367.836 67.5869C367.447 67.8057 367.119 68.1064 366.852 68.4893C366.592 68.8652 366.397 69.2993 366.268 69.7915C366.138 70.2769 366.073 70.793 366.073 71.3398ZM383.115 74.0571C383.115 73.7837 383.053 73.5308 382.93 73.2983C382.814 73.0591 382.571 72.8438 382.202 72.6523C381.84 72.4541 381.293 72.2832 380.562 72.1396C379.946 72.0098 379.389 71.856 378.89 71.6782C378.398 71.5005 377.978 71.2852 377.629 71.0322C377.287 70.7793 377.024 70.4819 376.839 70.1401C376.655 69.7983 376.562 69.3984 376.562 68.9404C376.562 68.5029 376.658 68.0894 376.85 67.6997C377.048 67.3101 377.325 66.9648 377.68 66.6641C378.042 66.3633 378.477 66.1274 378.982 65.9565C379.488 65.7856 380.052 65.7002 380.674 65.7002C381.563 65.7002 382.322 65.8574 382.951 66.1719C383.58 66.4863 384.062 66.9067 384.396 67.4331C384.731 67.9526 384.899 68.5303 384.899 69.166H383.002C383.002 68.8584 382.91 68.561 382.725 68.2739C382.547 67.98 382.284 67.7373 381.936 67.5459C381.594 67.3545 381.173 67.2588 380.674 67.2588C380.148 67.2588 379.721 67.3408 379.393 67.5049C379.071 67.6621 378.835 67.8638 378.685 68.1099C378.542 68.356 378.47 68.6157 378.47 68.8892C378.47 69.0942 378.504 69.2788 378.572 69.4429C378.647 69.6001 378.777 69.7471 378.962 69.8838C379.146 70.0137 379.406 70.1367 379.741 70.2529C380.076 70.3691 380.503 70.4854 381.023 70.6016C381.932 70.8066 382.681 71.0527 383.269 71.3398C383.856 71.627 384.294 71.979 384.581 72.396C384.868 72.813 385.012 73.3188 385.012 73.9136C385.012 74.3989 384.909 74.8433 384.704 75.2466C384.506 75.6499 384.215 75.9985 383.833 76.2925C383.457 76.5796 383.005 76.8052 382.479 76.9692C381.959 77.1265 381.375 77.2051 380.726 77.2051C379.748 77.2051 378.921 77.0308 378.244 76.6821C377.567 76.3335 377.055 75.8823 376.706 75.3286C376.357 74.7749 376.183 74.1904 376.183 73.5752H378.09C378.118 74.0947 378.268 74.5083 378.542 74.8159C378.815 75.1167 379.15 75.332 379.546 75.4619C379.943 75.585 380.336 75.6465 380.726 75.6465C381.245 75.6465 381.679 75.5781 382.028 75.4414C382.383 75.3047 382.653 75.1167 382.838 74.8774C383.022 74.6382 383.115 74.3647 383.115 74.0571ZM389.4 68.0381V81.2656H387.493V65.9053H389.236L389.4 68.0381ZM396.875 71.3604V71.5757C396.875 72.3823 396.78 73.1309 396.588 73.8213C396.397 74.5049 396.117 75.0996 395.748 75.6055C395.385 76.1113 394.938 76.5044 394.404 76.7847C393.871 77.0649 393.259 77.2051 392.569 77.2051C391.865 77.2051 391.243 77.0889 390.703 76.8564C390.163 76.624 389.705 76.2856 389.329 75.8413C388.953 75.397 388.652 74.8638 388.426 74.2417C388.208 73.6196 388.057 72.9189 387.975 72.1396V70.9912C388.057 70.1709 388.211 69.436 388.437 68.7866C388.662 68.1372 388.959 67.5835 389.329 67.1255C389.705 66.6606 390.159 66.3086 390.692 66.0693C391.226 65.8232 391.841 65.7002 392.538 65.7002C393.235 65.7002 393.854 65.8369 394.394 66.1104C394.934 66.377 395.389 66.7598 395.758 67.2588C396.127 67.7578 396.404 68.356 396.588 69.0532C396.78 69.7437 396.875 70.5127 396.875 71.3604ZM394.968 71.5757V71.3604C394.968 70.8066 394.91 70.2871 394.794 69.8018C394.678 69.3096 394.497 68.8789 394.25 68.5098C394.011 68.1338 393.704 67.8398 393.328 67.6279C392.952 67.4092 392.504 67.2998 391.984 67.2998C391.506 67.2998 391.089 67.3818 390.733 67.5459C390.385 67.71 390.087 67.9321 389.841 68.2124C389.595 68.4858 389.394 68.8003 389.236 69.1558C389.086 69.5044 388.973 69.8667 388.898 70.2427V72.8984C389.035 73.377 389.226 73.8281 389.472 74.252C389.718 74.6689 390.046 75.0073 390.457 75.2671C390.867 75.52 391.383 75.6465 392.005 75.6465C392.518 75.6465 392.958 75.5405 393.328 75.3286C393.704 75.1099 394.011 74.8125 394.25 74.4365C394.497 74.0605 394.678 73.6299 394.794 73.1445C394.91 72.6523 394.968 72.1294 394.968 71.5757ZM405.837 75.103V69.3916C405.837 68.9541 405.749 68.5747 405.571 68.2534C405.4 67.9253 405.14 67.6724 404.792 67.4946C404.443 67.3169 404.012 67.228 403.5 67.228C403.021 67.228 402.601 67.3101 402.238 67.4741C401.883 67.6382 401.603 67.8535 401.397 68.1201C401.199 68.3867 401.1 68.6738 401.1 68.9814H399.203C399.203 68.585 399.306 68.1919 399.511 67.8022C399.716 67.4126 400.01 67.0605 400.393 66.7461C400.782 66.4248 401.247 66.1719 401.787 65.9873C402.334 65.7959 402.942 65.7002 403.612 65.7002C404.419 65.7002 405.13 65.8369 405.745 66.1104C406.367 66.3838 406.853 66.7974 407.201 67.3511C407.557 67.8979 407.734 68.585 407.734 69.4121V74.5801C407.734 74.9492 407.765 75.3423 407.827 75.7593C407.895 76.1763 407.994 76.5352 408.124 76.8359V77H406.145C406.049 76.7812 405.974 76.4907 405.919 76.1284C405.865 75.7593 405.837 75.4175 405.837 75.103ZM406.166 70.2734L406.186 71.6064H404.269C403.729 71.6064 403.247 71.6509 402.823 71.7397C402.399 71.8218 402.043 71.9482 401.756 72.1191C401.469 72.29 401.25 72.5054 401.1 72.7651C400.95 73.0181 400.875 73.3154 400.875 73.6572C400.875 74.0059 400.953 74.3237 401.11 74.6108C401.268 74.8979 401.503 75.127 401.818 75.2979C402.139 75.4619 402.532 75.5439 402.997 75.5439C403.578 75.5439 404.091 75.4209 404.535 75.1748C404.979 74.9287 405.332 74.6279 405.591 74.2725C405.858 73.917 406.001 73.5718 406.022 73.2368L406.832 74.1494C406.784 74.4365 406.654 74.7544 406.442 75.103C406.23 75.4517 405.947 75.7866 405.591 76.1079C405.243 76.4224 404.826 76.6855 404.34 76.8975C403.862 77.1025 403.322 77.2051 402.72 77.2051C401.968 77.2051 401.309 77.0581 400.741 76.7642C400.181 76.4702 399.743 76.0771 399.429 75.585C399.121 75.0859 398.967 74.5288 398.967 73.9136C398.967 73.3188 399.083 72.7959 399.316 72.3447C399.548 71.8867 399.883 71.5073 400.321 71.2065C400.758 70.8989 401.285 70.6665 401.9 70.5093C402.515 70.3521 403.202 70.2734 403.961 70.2734H406.166ZM415.158 75.6465C415.609 75.6465 416.026 75.5542 416.409 75.3696C416.792 75.1851 417.106 74.9321 417.353 74.6108C417.599 74.2827 417.739 73.9102 417.773 73.4932H419.578C419.543 74.1494 419.321 74.7612 418.911 75.3286C418.508 75.8892 417.978 76.3438 417.322 76.6924C416.666 77.0342 415.944 77.2051 415.158 77.2051C414.324 77.2051 413.596 77.0581 412.974 76.7642C412.359 76.4702 411.846 76.0669 411.436 75.5542C411.033 75.0415 410.729 74.4536 410.523 73.7905C410.325 73.1206 410.226 72.4131 410.226 71.668V71.2373C410.226 70.4922 410.325 69.7881 410.523 69.125C410.729 68.4551 411.033 67.8638 411.436 67.3511C411.846 66.8384 412.359 66.4351 412.974 66.1411C413.596 65.8472 414.324 65.7002 415.158 65.7002C416.026 65.7002 416.785 65.8779 417.435 66.2334C418.084 66.582 418.593 67.0605 418.962 67.6689C419.338 68.2705 419.543 68.9541 419.578 69.7197H417.773C417.739 69.2617 417.609 68.8481 417.383 68.479C417.165 68.1099 416.864 67.8159 416.481 67.5972C416.105 67.3716 415.664 67.2588 415.158 67.2588C414.577 67.2588 414.088 67.375 413.692 67.6074C413.302 67.833 412.991 68.1406 412.759 68.5303C412.533 68.9131 412.369 69.3403 412.267 69.812C412.171 70.2769 412.123 70.752 412.123 71.2373V71.668C412.123 72.1533 412.171 72.6318 412.267 73.1035C412.362 73.5752 412.523 74.0024 412.749 74.3853C412.981 74.7681 413.292 75.0757 413.682 75.3081C414.078 75.5337 414.57 75.6465 415.158 75.6465ZM426.314 77.2051C425.542 77.2051 424.841 77.0752 424.212 76.8154C423.59 76.5488 423.054 76.1763 422.603 75.6978C422.158 75.2192 421.816 74.6519 421.577 73.9956C421.338 73.3394 421.218 72.6216 421.218 71.8423V71.4116C421.218 70.5093 421.352 69.7061 421.618 69.002C421.885 68.291 422.247 67.6895 422.705 67.1973C423.163 66.7051 423.683 66.3325 424.264 66.0796C424.845 65.8267 425.446 65.7002 426.068 65.7002C426.861 65.7002 427.545 65.8369 428.119 66.1104C428.7 66.3838 429.175 66.7666 429.544 67.2588C429.914 67.7441 430.187 68.3184 430.365 68.9814C430.542 69.6377 430.631 70.3555 430.631 71.1348V71.9858H422.346V70.4375H428.734V70.2939C428.707 69.8018 428.604 69.3232 428.427 68.8584C428.256 68.3936 427.982 68.0107 427.606 67.71C427.23 67.4092 426.718 67.2588 426.068 67.2588C425.638 67.2588 425.241 67.3511 424.879 67.5356C424.517 67.7134 424.206 67.98 423.946 68.3354C423.686 68.6909 423.484 69.125 423.341 69.6377C423.197 70.1504 423.125 70.7417 423.125 71.4116V71.8423C423.125 72.3687 423.197 72.8643 423.341 73.3291C423.491 73.7871 423.707 74.1904 423.987 74.5391C424.274 74.8877 424.619 75.1611 425.022 75.3594C425.433 75.5576 425.897 75.6567 426.417 75.6567C427.087 75.6567 427.654 75.52 428.119 75.2466C428.584 74.9731 428.991 74.6074 429.339 74.1494L430.488 75.062C430.249 75.4243 429.944 75.7695 429.575 76.0977C429.206 76.4258 428.751 76.6924 428.211 76.8975C427.678 77.1025 427.046 77.2051 426.314 77.2051ZM440.465 62.0703V77H438.486V62.0703H440.465ZM445.674 68.2739V77H443.777V65.9053H445.571L445.674 68.2739ZM445.223 71.0322L444.433 71.0015C444.44 70.2427 444.553 69.542 444.771 68.8994C444.99 68.25 445.298 67.686 445.694 67.2075C446.091 66.729 446.562 66.3599 447.109 66.1001C447.663 65.8335 448.275 65.7002 448.945 65.7002C449.492 65.7002 449.984 65.7754 450.421 65.9258C450.859 66.0693 451.231 66.3018 451.539 66.623C451.854 66.9443 452.093 67.3613 452.257 67.874C452.421 68.3799 452.503 68.9985 452.503 69.73V77H450.596V69.7095C450.596 69.1284 450.51 68.6636 450.339 68.3149C450.168 67.9595 449.919 67.7031 449.591 67.5459C449.263 67.3818 448.859 67.2998 448.381 67.2998C447.909 67.2998 447.479 67.3989 447.089 67.5972C446.706 67.7954 446.375 68.0688 446.094 68.4175C445.821 68.7661 445.605 69.166 445.448 69.6172C445.298 70.0615 445.223 70.5332 445.223 71.0322ZM461.844 74.0571C461.844 73.7837 461.783 73.5308 461.66 73.2983C461.543 73.0591 461.301 72.8438 460.932 72.6523C460.569 72.4541 460.022 72.2832 459.291 72.1396C458.676 72.0098 458.119 71.856 457.62 71.6782C457.127 71.5005 456.707 71.2852 456.358 71.0322C456.017 70.7793 455.753 70.4819 455.569 70.1401C455.384 69.7983 455.292 69.3984 455.292 68.9404C455.292 68.5029 455.388 68.0894 455.579 67.6997C455.777 67.3101 456.054 66.9648 456.41 66.6641C456.772 66.3633 457.206 66.1274 457.712 65.9565C458.218 65.7856 458.782 65.7002 459.404 65.7002C460.292 65.7002 461.051 65.8574 461.68 66.1719C462.309 66.4863 462.791 66.9067 463.126 67.4331C463.461 67.9526 463.628 68.5303 463.628 69.166H461.731C461.731 68.8584 461.639 68.561 461.455 68.2739C461.277 67.98 461.014 67.7373 460.665 67.5459C460.323 67.3545 459.903 67.2588 459.404 67.2588C458.877 67.2588 458.45 67.3408 458.122 67.5049C457.801 67.6621 457.565 67.8638 457.415 68.1099C457.271 68.356 457.199 68.6157 457.199 68.8892C457.199 69.0942 457.233 69.2788 457.302 69.4429C457.377 69.6001 457.507 69.7471 457.691 69.8838C457.876 70.0137 458.136 70.1367 458.471 70.2529C458.806 70.3691 459.233 70.4854 459.752 70.6016C460.662 70.8066 461.41 71.0527 461.998 71.3398C462.586 71.627 463.023 71.979 463.311 72.396C463.598 72.813 463.741 73.3188 463.741 73.9136C463.741 74.3989 463.639 74.8433 463.434 75.2466C463.235 75.6499 462.945 75.9985 462.562 76.2925C462.186 76.5796 461.735 76.8052 461.208 76.9692C460.689 77.1265 460.104 77.2051 459.455 77.2051C458.478 77.2051 457.65 77.0308 456.974 76.6821C456.297 76.3335 455.784 75.8823 455.436 75.3286C455.087 74.7749 454.913 74.1904 454.913 73.5752H456.82C456.847 74.0947 456.998 74.5083 457.271 74.8159C457.544 75.1167 457.879 75.332 458.276 75.4619C458.672 75.585 459.065 75.6465 459.455 75.6465C459.975 75.6465 460.409 75.5781 460.757 75.4414C461.113 75.3047 461.383 75.1167 461.567 74.8774C461.752 74.6382 461.844 74.3647 461.844 74.0571ZM470.878 65.9053V67.3613H464.879V65.9053H470.878ZM466.91 63.2085H468.807V74.252C468.807 74.6279 468.865 74.9116 468.981 75.103C469.097 75.2944 469.248 75.4209 469.432 75.4824C469.617 75.5439 469.815 75.5747 470.027 75.5747C470.184 75.5747 470.348 75.561 470.519 75.5337C470.697 75.4995 470.83 75.4722 470.919 75.4517L470.929 77C470.779 77.0479 470.581 77.0923 470.334 77.1333C470.095 77.1812 469.805 77.2051 469.463 77.2051C468.998 77.2051 468.571 77.1128 468.181 76.9282C467.792 76.7437 467.48 76.436 467.248 76.0054C467.022 75.5679 466.91 74.98 466.91 74.2417V63.2085ZM475 67.6484V77H473.103V65.9053H474.949L475 67.6484ZM478.466 65.8438L478.456 67.6074C478.298 67.5732 478.148 67.5527 478.004 67.5459C477.868 67.5322 477.71 67.5254 477.533 67.5254C477.095 67.5254 476.709 67.5938 476.374 67.7305C476.039 67.8672 475.755 68.0586 475.523 68.3047C475.291 68.5508 475.106 68.8447 474.969 69.1865C474.839 69.5215 474.754 69.8906 474.713 70.2939L474.18 70.6016C474.18 69.9316 474.245 69.3027 474.375 68.7148C474.511 68.127 474.72 67.6074 475 67.1562C475.28 66.6982 475.636 66.3428 476.066 66.0898C476.504 65.8301 477.023 65.7002 477.625 65.7002C477.762 65.7002 477.919 65.7173 478.097 65.7515C478.274 65.7788 478.397 65.8096 478.466 65.8438ZM487.007 74.4365V65.9053H488.915V77H487.1L487.007 74.4365ZM487.366 72.0986L488.156 72.0781C488.156 72.8164 488.077 73.5 487.92 74.1289C487.77 74.751 487.523 75.291 487.182 75.749C486.84 76.207 486.392 76.5659 485.838 76.8257C485.285 77.0786 484.611 77.2051 483.818 77.2051C483.278 77.2051 482.783 77.1265 482.332 76.9692C481.887 76.812 481.504 76.5693 481.183 76.2412C480.862 75.9131 480.612 75.4858 480.435 74.9595C480.264 74.4331 480.178 73.8008 480.178 73.0625V65.9053H482.075V73.083C482.075 73.582 482.13 73.9956 482.239 74.3237C482.355 74.645 482.509 74.9014 482.701 75.0928C482.899 75.2773 483.118 75.4072 483.357 75.4824C483.603 75.5576 483.856 75.5952 484.116 75.5952C484.922 75.5952 485.562 75.4414 486.033 75.1338C486.505 74.8193 486.843 74.3989 487.048 73.8726C487.26 73.3394 487.366 72.748 487.366 72.0986ZM493.693 68.1099V77H491.786V65.9053H493.59L493.693 68.1099ZM493.303 71.0322L492.421 71.0015C492.428 70.2427 492.527 69.542 492.719 68.8994C492.91 68.25 493.194 67.686 493.57 67.2075C493.946 66.729 494.414 66.3599 494.975 66.1001C495.535 65.8335 496.185 65.7002 496.923 65.7002C497.442 65.7002 497.921 65.7754 498.358 65.9258C498.796 66.0693 499.175 66.2983 499.497 66.6128C499.818 66.9272 500.067 67.3306 500.245 67.8228C500.423 68.3149 500.512 68.9097 500.512 69.6069V77H498.615V69.6992C498.615 69.1182 498.516 68.6533 498.317 68.3047C498.126 67.9561 497.853 67.7031 497.497 67.5459C497.142 67.3818 496.725 67.2998 496.246 67.2998C495.686 67.2998 495.217 67.3989 494.841 67.5972C494.465 67.7954 494.165 68.0688 493.939 68.4175C493.713 68.7661 493.549 69.166 493.447 69.6172C493.351 70.0615 493.303 70.5332 493.303 71.0322ZM500.491 69.9863L499.22 70.376C499.227 69.7676 499.326 69.1831 499.517 68.6226C499.715 68.062 499.999 67.563 500.368 67.1255C500.744 66.688 501.206 66.3428 501.752 66.0898C502.299 65.8301 502.925 65.7002 503.629 65.7002C504.224 65.7002 504.75 65.7788 505.208 65.936C505.673 66.0933 506.062 66.3359 506.377 66.6641C506.698 66.9854 506.941 67.3989 507.105 67.9048C507.269 68.4106 507.351 69.0122 507.351 69.7095V77H505.444V69.689C505.444 69.0669 505.345 68.585 505.146 68.2432C504.955 67.8945 504.682 67.6519 504.326 67.5151C503.978 67.3716 503.561 67.2998 503.075 67.2998C502.658 67.2998 502.289 67.3716 501.968 67.5151C501.646 67.6587 501.376 67.8569 501.158 68.1099C500.939 68.356 500.771 68.6396 500.655 68.9609C500.546 69.2822 500.491 69.624 500.491 69.9863ZM514.826 77.2051C514.054 77.2051 513.353 77.0752 512.724 76.8154C512.102 76.5488 511.565 76.1763 511.114 75.6978C510.67 75.2192 510.328 74.6519 510.089 73.9956C509.85 73.3394 509.73 72.6216 509.73 71.8423V71.4116C509.73 70.5093 509.863 69.7061 510.13 69.002C510.396 68.291 510.759 67.6895 511.217 67.1973C511.675 66.7051 512.194 66.3325 512.775 66.0796C513.356 65.8267 513.958 65.7002 514.58 65.7002C515.373 65.7002 516.057 65.8369 516.631 66.1104C517.212 66.3838 517.687 66.7666 518.056 67.2588C518.425 67.7441 518.699 68.3184 518.876 68.9814C519.054 69.6377 519.143 70.3555 519.143 71.1348V71.9858H510.858V70.4375H517.246V70.2939C517.219 69.8018 517.116 69.3232 516.938 68.8584C516.768 68.3936 516.494 68.0107 516.118 67.71C515.742 67.4092 515.229 67.2588 514.58 67.2588C514.149 67.2588 513.753 67.3511 513.391 67.5356C513.028 67.7134 512.717 67.98 512.458 68.3354C512.198 68.6909 511.996 69.125 511.853 69.6377C511.709 70.1504 511.637 70.7417 511.637 71.4116V71.8423C511.637 72.3687 511.709 72.8643 511.853 73.3291C512.003 73.7871 512.218 74.1904 512.499 74.5391C512.786 74.8877 513.131 75.1611 513.534 75.3594C513.944 75.5576 514.409 75.6567 514.929 75.6567C515.599 75.6567 516.166 75.52 516.631 75.2466C517.096 74.9731 517.502 74.6074 517.851 74.1494L519 75.062C518.76 75.4243 518.456 75.7695 518.087 76.0977C517.718 76.4258 517.263 76.6924 516.723 76.8975C516.19 77.1025 515.558 77.2051 514.826 77.2051ZM523.255 68.2739V77H521.358V65.9053H523.152L523.255 68.2739ZM522.804 71.0322L522.014 71.0015C522.021 70.2427 522.134 69.542 522.353 68.8994C522.571 68.25 522.879 67.686 523.275 67.2075C523.672 66.729 524.144 66.3599 524.69 66.1001C525.244 65.8335 525.856 65.7002 526.526 65.7002C527.073 65.7002 527.565 65.7754 528.002 65.9258C528.44 66.0693 528.812 66.3018 529.12 66.623C529.435 66.9443 529.674 67.3613 529.838 67.874C530.002 68.3799 530.084 68.9985 530.084 69.73V77H528.177V69.7095C528.177 69.1284 528.091 68.6636 527.92 68.3149C527.75 67.9595 527.5 67.7031 527.172 67.5459C526.844 67.3818 526.44 67.2998 525.962 67.2998C525.49 67.2998 525.06 67.3989 524.67 67.5972C524.287 67.7954 523.956 68.0688 523.675 68.4175C523.402 68.7661 523.187 69.166 523.029 69.6172C522.879 70.0615 522.804 70.5332 522.804 71.0322ZM537.61 65.9053V67.3613H531.612V65.9053H537.61ZM533.642 63.2085H535.539V74.252C535.539 74.6279 535.597 74.9116 535.713 75.103C535.83 75.2944 535.98 75.4209 536.165 75.4824C536.349 75.5439 536.547 75.5747 536.759 75.5747C536.917 75.5747 537.081 75.561 537.251 75.5337C537.429 75.4995 537.562 75.4722 537.651 75.4517L537.662 77C537.511 77.0479 537.313 77.0923 537.067 77.1333C536.828 77.1812 536.537 77.2051 536.195 77.2051C535.73 77.2051 535.303 77.1128 534.914 76.9282C534.524 76.7437 534.213 76.436 533.98 76.0054C533.755 75.5679 533.642 74.98 533.642 74.2417V63.2085ZM546.377 75.103V69.3916C546.377 68.9541 546.289 68.5747 546.111 68.2534C545.94 67.9253 545.68 67.6724 545.332 67.4946C544.983 67.3169 544.552 67.228 544.04 67.228C543.561 67.228 543.141 67.3101 542.778 67.4741C542.423 67.6382 542.143 67.8535 541.938 68.1201C541.739 68.3867 541.64 68.6738 541.64 68.9814H539.743C539.743 68.585 539.846 68.1919 540.051 67.8022C540.256 67.4126 540.55 67.0605 540.933 66.7461C541.322 66.4248 541.787 66.1719 542.327 65.9873C542.874 65.7959 543.482 65.7002 544.152 65.7002C544.959 65.7002 545.67 65.8369 546.285 66.1104C546.907 66.3838 547.393 66.7974 547.741 67.3511C548.097 67.8979 548.274 68.585 548.274 69.4121V74.5801C548.274 74.9492 548.305 75.3423 548.367 75.7593C548.435 76.1763 548.534 76.5352 548.664 76.8359V77H546.685C546.589 76.7812 546.514 76.4907 546.459 76.1284C546.405 75.7593 546.377 75.4175 546.377 75.103ZM546.706 70.2734L546.726 71.6064H544.809C544.269 71.6064 543.787 71.6509 543.363 71.7397C542.939 71.8218 542.583 71.9482 542.296 72.1191C542.009 72.29 541.791 72.5054 541.64 72.7651C541.49 73.0181 541.415 73.3154 541.415 73.6572C541.415 74.0059 541.493 74.3237 541.65 74.6108C541.808 74.8979 542.043 75.127 542.358 75.2979C542.679 75.4619 543.072 75.5439 543.537 75.5439C544.118 75.5439 544.631 75.4209 545.075 75.1748C545.52 74.9287 545.872 74.6279 546.131 74.2725C546.398 73.917 546.542 73.5718 546.562 73.2368L547.372 74.1494C547.324 74.4365 547.194 74.7544 546.982 75.103C546.771 75.4517 546.487 75.7866 546.131 76.1079C545.783 76.4224 545.366 76.6855 544.88 76.8975C544.402 77.1025 543.862 77.2051 543.26 77.2051C542.508 77.2051 541.849 77.0581 541.281 76.7642C540.721 76.4702 540.283 76.0771 539.969 75.585C539.661 75.0859 539.507 74.5288 539.507 73.9136C539.507 73.3188 539.624 72.7959 539.856 72.3447C540.088 71.8867 540.423 71.5073 540.861 71.2065C541.298 70.8989 541.825 70.6665 542.44 70.5093C543.055 70.3521 543.742 70.2734 544.501 70.2734H546.706ZM555.903 65.9053V67.3613H549.905V65.9053H555.903ZM551.935 63.2085H553.832V74.252C553.832 74.6279 553.89 74.9116 554.006 75.103C554.123 75.2944 554.273 75.4209 554.458 75.4824C554.642 75.5439 554.84 75.5747 555.052 75.5747C555.209 75.5747 555.374 75.561 555.544 75.5337C555.722 75.4995 555.855 75.4722 555.944 75.4517L555.955 77C555.804 77.0479 555.606 77.0923 555.36 77.1333C555.121 77.1812 554.83 77.2051 554.488 77.2051C554.023 77.2051 553.596 77.1128 553.207 76.9282C552.817 76.7437 552.506 76.436 552.273 76.0054C552.048 75.5679 551.935 74.98 551.935 74.2417V63.2085ZM560.189 65.9053V77H558.282V65.9053H560.189ZM558.139 62.9624C558.139 62.6548 558.231 62.395 558.416 62.1831C558.607 61.9712 558.887 61.8652 559.256 61.8652C559.619 61.8652 559.896 61.9712 560.087 62.1831C560.285 62.395 560.384 62.6548 560.384 62.9624C560.384 63.2563 560.285 63.5093 560.087 63.7212C559.896 63.9263 559.619 64.0288 559.256 64.0288C558.887 64.0288 558.607 63.9263 558.416 63.7212C558.231 63.5093 558.139 63.2563 558.139 62.9624ZM562.732 71.5757V71.3398C562.732 70.54 562.849 69.7983 563.081 69.1147C563.313 68.4243 563.648 67.8262 564.086 67.3203C564.523 66.8076 565.053 66.4111 565.675 66.1309C566.297 65.8438 566.995 65.7002 567.767 65.7002C568.546 65.7002 569.247 65.8438 569.869 66.1309C570.498 66.4111 571.031 66.8076 571.469 67.3203C571.913 67.8262 572.251 68.4243 572.484 69.1147C572.716 69.7983 572.833 70.54 572.833 71.3398V71.5757C572.833 72.3755 572.716 73.1172 572.484 73.8008C572.251 74.4844 571.913 75.0825 571.469 75.5952C571.031 76.1011 570.501 76.4976 569.879 76.7847C569.264 77.0649 568.567 77.2051 567.788 77.2051C567.008 77.2051 566.308 77.0649 565.686 76.7847C565.063 76.4976 564.53 76.1011 564.086 75.5952C563.648 75.0825 563.313 74.4844 563.081 73.8008C562.849 73.1172 562.732 72.3755 562.732 71.5757ZM564.629 71.3398V71.5757C564.629 72.1294 564.694 72.6523 564.824 73.1445C564.954 73.6299 565.149 74.0605 565.409 74.4365C565.675 74.8125 566.007 75.1099 566.403 75.3286C566.8 75.5405 567.261 75.6465 567.788 75.6465C568.307 75.6465 568.762 75.5405 569.151 75.3286C569.548 75.1099 569.876 74.8125 570.136 74.4365C570.396 74.0605 570.59 73.6299 570.72 73.1445C570.857 72.6523 570.925 72.1294 570.925 71.5757V71.3398C570.925 70.793 570.857 70.2769 570.72 69.7915C570.59 69.2993 570.392 68.8652 570.125 68.4893C569.866 68.1064 569.538 67.8057 569.141 67.5869C568.751 67.3682 568.293 67.2588 567.767 67.2588C567.248 67.2588 566.79 67.3682 566.393 67.5869C566.003 67.8057 565.675 68.1064 565.409 68.4893C565.149 68.8652 564.954 69.2993 564.824 69.7915C564.694 70.2769 564.629 70.793 564.629 71.3398ZM577.108 68.2739V77H575.211V65.9053H577.006L577.108 68.2739ZM576.657 71.0322L575.868 71.0015C575.875 70.2427 575.987 69.542 576.206 68.8994C576.425 68.25 576.732 67.686 577.129 67.2075C577.525 66.729 577.997 66.3599 578.544 66.1001C579.098 65.8335 579.709 65.7002 580.379 65.7002C580.926 65.7002 581.418 65.7754 581.856 65.9258C582.293 66.0693 582.666 66.3018 582.974 66.623C583.288 66.9443 583.527 67.3613 583.691 67.874C583.855 68.3799 583.938 68.9985 583.938 69.73V77H582.03V69.7095C582.03 69.1284 581.945 68.6636 581.774 68.3149C581.603 67.9595 581.354 67.7031 581.025 67.5459C580.697 67.3818 580.294 67.2998 579.815 67.2998C579.344 67.2998 578.913 67.3989 578.523 67.5972C578.141 67.7954 577.809 68.0688 577.529 68.4175C577.255 68.7661 577.04 69.166 576.883 69.6172C576.732 70.0615 576.657 70.5332 576.657 71.0322Z" fill="#005AAA"/>
<path d="M209.777 63.2421C209.777 65.6415 207.827 67.5918 205.428 67.5918H198.089C195.69 67.5918 193.74 65.6415 193.74 63.2421V38.0281H184.703V62.9755C184.703 70.5103 190.821 76.6279 198.356 76.6279H205.175C212.71 76.6279 218.827 70.5243 218.827 62.9755V38.014H209.791V63.2421H209.777Z" fill="#005AAA"/>
<path d="M237.18 57.8682V51.3998C237.18 49.0005 239.13 47.0501 241.53 47.0501H248.868C251.267 47.0501 253.218 49.0005 253.218 51.3998V57.8682H237.18ZM248.602 38H241.782C234.248 38 228.13 44.1176 228.13 51.6524V76.6139H237.166V66.8902H253.204V76.5858H262.24V51.6383C262.254 44.1176 256.15 38 248.602 38Z" fill="#005AAA"/>
<path d="M280.607 38.014H271.571V76.6279H280.607V38.014Z" fill="#005AAA"/>
<path d="M164.737 52.7889H151.913C150.327 52.7889 149.036 51.498 149.036 49.9125C149.036 48.327 150.327 47.0361 151.913 47.0361H174.11V38H151.913C145.332 38 140 43.3319 140 49.9125C140 56.4931 145.332 61.825 151.913 61.825H164.695C166.294 61.825 167.599 63.1299 167.599 64.7295C167.599 66.329 166.294 67.6339 164.695 67.6339H141.263V76.67H164.723C171.304 76.67 176.635 71.3382 176.635 64.7575V64.6874C176.65 58.1348 171.318 52.7889 164.737 52.7889Z" fill="#005AAA"/>
<path d="M53.8147 41.7231C41.1893 41.8839 0 43.4778 0 57.1917C0 71.9339 47.5635 72.6804 57.0992 72.6804C66.6338 72.6804 114.197 71.9339 114.197 57.1917C114.197 50.6542 105.615 47.6605 99.1611 45.9779C92.1215 44.1422 82.6123 42.8112 72.1132 42.1612C72.2848 44.953 72.4055 47.8224 72.4797 50.7396C91.6652 51.9919 101.812 55.2329 104.932 57.2028C100.707 59.937 84.4174 64.1342 57.0992 64.1342C29.7323 64.1342 13.4337 59.9215 9.24227 57.1884C13.2211 54.573 28.131 50.5977 53.9232 50.2671C56.2797 50.2383 58.1656 48.3005 58.1346 45.9402C58.1047 43.5998 56.2011 41.722 53.8701 41.722C53.8512 41.722 53.8335 41.722 53.8147 41.7231Z" fill="url(#paint0_linear_1209_51133)"/>
<path d="M41.6346 57.1917C41.6346 66.7407 42.3799 114.381 57.0993 114.381C63.6229 114.381 66.6118 105.792 68.2917 99.3296C70.1255 92.2752 71.4555 82.7418 72.1055 72.2178C68.9439 72.4075 66.0204 72.5218 63.541 72.5894C62.2907 91.8105 59.0538 101.977 57.0871 105.103C54.3574 100.869 50.1659 84.5531 50.1659 57.1917C50.1659 29.8016 54.3663 13.48 57.0949 9.26727C59.7149 13.3546 63.7979 28.9364 64.0216 55.0399C64.0415 57.3881 65.9473 59.277 68.2873 59.277H68.3249C70.6803 59.2559 72.574 57.3259 72.554 54.9678C72.4344 41.0087 71.1831 27.9293 69.0303 18.1407C66.3083 5.76447 62.5167 0 57.0993 0C42.3799 0 41.6346 47.6406 41.6346 57.1917Z" fill="url(#paint1_linear_1209_51133)"/>
<defs>
<linearGradient id="paint0_linear_1209_51133" x1="0.000147283" y1="57.1898" x2="114.197" y2="57.1898" gradientUnits="userSpaceOnUse">
<stop stop-color="#45C3F3"/>
<stop offset="0.5" stop-color="#1671C2"/>
<stop offset="0.959876" stop-color="#2056AE"/>
<stop offset="1" stop-color="#2056AE"/>
</linearGradient>
<linearGradient id="paint1_linear_1209_51133" x1="57.0941" y1="114.382" x2="57.0941" y2="0.000149989" gradientUnits="userSpaceOnUse">
<stop stop-color="#2056AE"/>
<stop offset="0.25" stop-color="#2056AE"/>
<stop offset="0.280093" stop-color="#2056AE"/>
<stop offset="0.625" stop-color="#A32B9B"/>
<stop offset="1" stop-color="#ED1443"/>
</linearGradient>
</defs>
</svg>
